# xmcd
#
# Track frame offsets: 
#        150
#        19307
#        40173
#        61109
#        72180
#        99559
#        119709
#        140859
#        160727
#        178961
#        202108
#        218377
#        242050
#        262229
#        287365
#        304213
#        323968
#        341950
#
# Disc length: 4768 seconds
#
# Revision: 0
# Processed by: cddbd v1.5.2PL0 Copyright (c) Steve Scherf et al.
# Submitted via: ExactAudioCopy v1.3
#
DISCID=1f129e12
DTITLE=Various Artist - Akella Presents - vol. 172 - Rockin' Blues  C
DTITLE=D2
DYEAR=2019
DGENRE=Blues
TTITLE0=Andreas Diehlmann Band - I Don't Know
TTITLE1=Ron Spencer Band - Cadillac Walk
TTITLE2=The BigBlue - IPods On The Dancefloor
TTITLE3=The D.B. Walker Band - What To Do
TTITLE4=Dickie Peltier - Good Times
TTITLE5=Uni Debess - Red House
TTITLE6=Black Label Blues Band - Help Me
TTITLE7=Call Me Mildy - My Woman Left Me
TTITLE8=Blues Cousins - Sweet Lady
TTITLE9=Buck69 - Good Days Bad Days
TTITLE10=Terry Davidson and the Gears - So Hot
TTITLE11=T.G. Copperfield - The Worried Man
TTITLE12=The D.B. Walker Band - Hear Here
TTITLE13=Chad Wesley - Thunder
TTITLE14=Mick Clarke - Devil On The Road
TTITLE15=Kent Earl Housman - The Gates of Hell
TTITLE16=Built For Comfort Blues Band - High Ball
TTITLE17=Stone - I'm Still Breathin'
EXTD=
EXTT0=
EXTT1=
EXTT2=
EXTT3=
EXTT4=
EXTT5=
EXTT6=
EXTT7=
EXTT8=
EXTT9=
EXTT10=
EXTT11=
EXTT12=
EXTT13=
EXTT14=
EXTT15=
EXTT16=
EXTT17=
PLAYORDER=
